PathFileType	4	(X/Y/Z)	Patient4_TMGait_0pt8_01_left_07.trc.trc
DataRate	CameraRate	NumFrames	NumMarkers	Units	OrigDataRate	OrigDataStartFrame	OrigNumFrames
85.365853658537	85.365853658537	4	33	mm	85.365853658537	53	       141
Frame#	Time	Sacral			L.Shoulder			Chest			R.Shoulder			Neck			R.ASIS			L.ASIS			R.Thigh.Superior			R.Thigh.Lateral			R.Thigh.Inferior			R.Patella			L.Thigh.Superior			L.Thigh.Lateral			L.Thigh.Inferior			L.Patella			L.Shank.Superior			L.Shank.Lateral			L.Shank.Inferior			R.Shank.Superior			R.Shank.Lateral			R.Shank.Inferior			R.Heel			R.Midfoot.Superior			R.Midfoot.Lateral			R.Toe			L.Heel			L.Midfoot.Lateral			L.Midfoot.Superior			L.Toe			L.Elbow			L.Wrist			R.Elbow			R.Wrist			
		X1	Y1	Z1	X2	Y2	Z2	X3	Y3	Z3	X4	Y4	Z4	X5	Y5	Z5	X6	Y6	Z6	X7	Y7	Z7	X8	Y8	Z8	X9	Y9	Z9	X10	Y10	Z10	X11	Y11	Z11	X12	Y12	Z12	X13	Y13	Z13	X14	Y14	Z14	X15	Y15	Z15	X16	Y16	Z16	X17	Y17	Z17	X18	Y18	Z18	X19	Y19	Z19	X20	Y20	Z20	X21	Y21	Z21	X22	Y22	Z22	X23	Y23	Z23	X24	Y24	Z24	X25	Y25	Z25	X26	Y26	Z26	X27	Y27	Z27	X28	Y28	Z28	X29	Y29	Z29	X30	Y30	Z30	X31	Y31	Z31	X32	Y32	Z32	X33	Y33	Z33	

53	7.589142857143	838.909367198516	1006.912834408609	459.343656649938	1030.562975935239	1434.691904549939	286.242872884072	1121.466482134697	1364.186890165317	454.218167818108	1027.155945797325	1438.418788629457	623.223401109206	1011.396943432691	1496.820857833136	443.097161752575	1061.788946723762	945.624930931370	583.298743181119	1058.231651947559	964.994706300095	308.588203273792	1149.468469546083	780.417191269717	557.088458840092	1110.620474613413	657.813017571839	631.325532445397	1206.008930808588	622.058963837372	557.470253321441	1227.135566512169	508.732864036358	580.426481488068	1104.523053784888	751.100207486369	337.554298026584	1012.823211329624	636.240788399094	279.574938297147	1094.397613826355	557.018700319020	344.796447714905	1092.940329554353	487.923216458893	356.443133580098	1064.470784138822	415.750528043215	348.631008699368	973.045167701695	303.015414826550	298.641445692542	1018.807796058169	192.045285239985	372.614658628685	1151.978893576330	431.844694199639	583.065562020195	1027.647548643803	390.968646348828	636.225857563251	1018.133057846877	281.349831252012	587.485768285069	821.444832587243	219.541532944867	546.590206693276	985.744489366198	159.529547847096	599.910871483646	874.170694532282	159.567881420387	624.123006608721	1046.334055035768	46.107181832010	630.813301064222	887.687967565072	38.035595732919	416.346714802059	959.614711353409	35.658196141803	333.515234619748	1043.158494243435	96.585817690079	359.862395998140	1170.741230012137	46.995857286291	327.116022762727	1013.346810483940	1085.714339606203	157.449810128183	1121.132978796459	847.487433009699	174.251495626550	986.012714340016	1090.452203856043	731.000361009110	1205.967398198294	962.622019679163	702.611526175428	
54	7.600857142857	838.362547105925	1007.205227895308	457.838219166502	1031.298441259790	1435.476338006429	286.022235564934	1121.107705311855	1364.579440731440	454.394311796676	1025.869856867640	1438.395159936571	623.029893023270	1011.260640123246	1497.273659550997	442.925830198229	1060.794914970923	946.696794148699	582.805482910527	1058.649787247811	965.641923080597	307.828820524855	1150.759966598504	784.506179822181	556.257658814246	1114.986334393365	661.364491912114	631.034577934107	1210.417857730682	627.221691024247	556.576486202734	1234.484127933039	515.114322500231	580.063827490663	1101.519654265150	750.010276083005	337.614372882421	1008.015847976548	636.353938559318	278.918052723513	1087.784915834967	555.877857612960	344.450213575290	1085.093874590207	487.045537293712	356.221427320643	1056.591074031489	415.322150465435	348.277352594958	964.819762386976	302.928392865027	298.232255260116	1009.794248541591	191.810950255460	372.450759779706	1162.706874418754	435.677046857432	582.968231921575	1040.922712000650	388.350145176862	636.403028087456	1036.858188220947	278.370889083109	587.563012038235	843.427907809464	206.370325579710	547.326168540410	1011.050331193877	155.270458920203	600.500222634709	899.458909174719	149.079654438947	624.624785182430	1077.399617504656	44.849902211675	630.404344819924	878.241390837704	38.067538526622	416.304985832457	950.204039734603	35.650785475030	333.474778136047	1033.793613896403	96.518131120177	359.811948299745	1161.392685232823	46.732279689372	327.075517278487	1022.847825027291	1087.058834012838	154.945685186960	1141.851179301777	854.291564813250	172.893453101266	977.750710286360	1090.653397987567	729.526176967369	1185.670332049726	941.429008113478	706.137797823948	
55	7.612571428571	837.829499403680	1007.381527338925	456.431447415527	1032.162440272186	1436.105454674772	285.886870986384	1120.851029509794	1364.807826196818	454.653712525833	1024.702085626062	1438.231023151110	622.897359568195	1011.201899766458	1497.580076898459	442.816023817680	1059.810619326804	947.546348584480	582.466836926435	1059.220620120784	966.160513305823	307.190147532936	1151.733972286676	788.089135660986	555.585309626238	1118.787721231117	664.489263826392	630.800796363542	1214.033176856068	631.712292517002	555.664445319201	1240.870804151700	521.109370196128	579.734119398353	1098.451242227386	748.852742400335	337.879202647452	1003.207785195180	636.435776127437	278.322450170488	1081.088651014578	554.728157054438	344.168642137815	1077.170247803114	486.183456202050	356.005151192624	1048.656025779553	414.902700441963	347.938570803847	956.540094429651	302.847641155194	297.858241875354	1000.777758523223	191.578804123316	372.290793786245	1172.837670587018	439.174201622177	582.987474386630	1054.216181164946	385.121958875016	636.863604586465	1056.046087729002	275.034958607303	587.981173389093	866.742420166273	192.281016557350	548.514191816264	1037.388487250895	150.869899858935	601.551570755522	926.147153412317	138.189982181824	625.662777785572	1109.691115725626	44.020291130430	630.702914585028	868.811180812173	38.104677897638	416.265981265243	940.795269634712	35.645931043472	333.443269014396	1024.435596434876	96.449729442416	359.767475958237	1152.052979309855	46.441228870230	327.037654723819	1032.033749000533	1088.557842922694	152.581189210301	1162.258490227237	861.968950542763	171.914705369835	970.136652092431	1090.723887132676	728.116485823988	1163.862661440493	921.515666458482	709.745396240718	
56	7.624285714286	837.325062168510	1007.435074902421	455.142645206649	1033.149680293156	1436.559112449588	285.844412447962	1120.706360611481	1364.855942265049	454.999037272233	1023.668633114801	1437.910332104303	622.836346957488	1011.234722115465	1497.725350052224	442.776290898903	1058.868015013710	948.149831163941	582.269342575695	1059.896109505807	966.526297020577	306.676757609628	1152.383422843351	791.078164200791	555.044790198898	1121.947550507387	667.096916842854	630.620175047418	1216.816195669922	635.424796081361	554.775224854666	1246.240268613572	526.612621492985	579.440321095437	1095.330224790793	747.619475519034	338.277376284992	998.375078808988	636.486263746810	277.783228103607	1074.304310703338	553.573485250014	343.925853824613	1069.173716223324	485.346778529025	355.776302304603	1040.662333268654	414.497554223446	347.606723872818	948.197363063813	302.776858075053	297.521170033706	991.757323667531	191.354266643330	372.140264963670	1182.302994386197	442.315246342942	583.113102177117	1067.523706031343	381.392263231332	637.617759903695	1075.613859385889	271.532465120964	588.721896792277	891.398463047916	177.656072026296	550.162598695243	1064.610169575184	146.580322320761	602.960087756166	954.179684262939	127.254040037123	627.201154825611	1142.962492139904	43.934025342749	631.575813879586	859.398994151695	38.149251061841	416.229144431402	931.387235152018	35.644878500077	333.421988037818	1015.082714773206	96.381445695289	359.730504980851	1142.717100041648	46.133585290070	327.002120607457	1040.840591237938	1090.159804068657	150.357040010231	1182.241163091356	870.499675879645	171.308330386548	963.082266513600	1090.644227373078	726.750166367417	1140.713068315975	903.148594495508	713.385742404478	
